<svg id="Layer_1" data-name="Layer 1" xmlns="http://www.w3.org/2000/svg" viewBox="0 0 256 318"><defs><style>.cls-1,.cls-5{fill:none;}.cls-2{fill:#ff8f15;}.cls-3{font-size:13.4px;fill:#1d5d00;font-family:Montserrat-ThinItalic, Montserrat;font-weight:200;font-style:italic;}.cls-4{letter-spacing:-0.01em;}.cls-5{stroke:#1d5d00;stroke-miterlimit:10;stroke-width:0.5px;}</style></defs><title>Logo</title><polygon class="cls-1" points="149.01 137.76 167.71 137.76 149.01 114.17 149.01 137.76"/><polygon class="cls-1" points="109.09 137.76 89.58 137.76 109.09 162.34 109.09 137.76"/><polygon class="cls-1" points="60.9 137.76 79.44 137.76 60.9 114.36 60.9 137.76"/><polygon class="cls-1" points="197.21 137.76 177.85 137.76 197.21 162.14 197.21 137.76"/><polygon class="cls-2" points="110.62 171.51 91.11 146.93 80.96 146.93 111.94 186.03 118.65 186.03 118.65 146.93 110.62 146.93 110.62 171.51"/><rect class="cls-2" x="52.75" y="146.93" width="8.14" height="39.1"/><polygon class="cls-2" points="59.47 95.37 52.75 95.37 52.75 133.3 60.9 133.3 60.9 109.9 79.44 133.3 89.58 133.3 59.47 95.37"/><rect class="cls-2" x="109.09" y="95.37" width="8.03" height="37.93"/><rect class="cls-2" x="140.87" y="146.93" width="8.14" height="38.9"/><polygon class="cls-2" points="146.47 95.18 139.75 95.18 139.75 133.3 147.9 133.3 147.9 109.7 166.59 133.3 176.74 133.3 146.47 95.18"/><polygon class="cls-2" points="197.21 146.93 197.21 171.31 177.85 146.93 167.71 146.93 198.53 185.84 205.24 185.84 205.24 146.93 197.21 146.93"/><rect class="cls-2" x="197.21" y="95.18" width="8.03" height="38.12"/><text class="cls-3" transform="translate(50.37 143.97)">N<tspan class="cls-4" x="10.93" y="0">E</tspan><tspan x="19.75" y="0">W NORDIC KI</tspan><tspan class="cls-4" x="110.18" y="0">T</tspan><tspan x="117.38" y="0">CHEN</tspan></text><line class="cls-5" x1="129" y1="91.5" x2="129" y2="131"/><line class="cls-5" x1="128.5" y1="147.5" x2="128.5" y2="192.5"/></svg>
